# xmcd
#
# Track frame offsets:
#	150
#	19964
#	46502
#	66394
#	81633
#	104456
#	127506
#	149561
#
# Disc length: 2216 seconds
#
# Revision: 1
# Processed by: cddbd v1.5.2PL0 Copyright (c) Steve Scherf et al.
# Submitted via: audiograbber 1.83.01
#
DISCID=6c08a608
DTITLE=Dexter Wansel - Life On Mars
DYEAR=1976
DGENRE=Soul
TTITLE0=A Prophet Named K.G.
TTITLE1=Life On Mars
TTITLE2=Together Once Again
TTITLE3=Stargazer
TTITLE4=One Million Miles from the Ground
TTITLE5=You Can Be What You Wanna Be
TTITLE6=Theme from the Planets
TTITLE7=Rings of Saturn
EXTD=
EXTT0=
EXTT1=
EXTT2=
EXTT3=
EXTT4=
EXTT5=
EXTT6=
EXTT7=
PLAYORDER=
